<mxfile host="app.diagrams.net" modified="2023-06-14T11:29:33.973Z" agent="Mozilla/5.0 (Windows NT 10.0; Win64; x64) AppleWebKit/537.36 (KHTML, like Gecko) Chrome/114.0.0.0 Safari/537.36" etag="w3fih1Fgc8DBLud1bb5C" version="21.3.8" type="device">
  <diagram name="Страница 1" id="jtsjzYz751gcPq5hV8ZX">
    <mxGraphModel dx="1674" dy="806" grid="1" gridSize="10" guides="1" tooltips="1" connect="1" arrows="1" fold="1" page="1" pageScale="1" pageWidth="827" pageHeight="1169" math="0" shadow="0">
      <root>
        <mxCell id="0" />
        <mxCell id="1" parent="0" />
        <mxCell id="0ozjAAEZ4C_CavGXRtkN-1" value="User" style="swimlane;fontStyle=0;childLayout=stackLayout;horizontal=1;startSize=26;horizontalStack=0;resizeParent=1;resizeParentMax=0;resizeLast=0;collapsible=1;marginBottom=0;align=center;fontSize=14;" parent="1" vertex="1">
          <mxGeometry x="150" y="164" width="180" height="248" as="geometry" />
        </mxCell>
        <mxCell id="0ozjAAEZ4C_CavGXRtkN-2" value="&lt;font style=&quot;vertical-align: inherit;&quot;&gt;&lt;font style=&quot;vertical-align: inherit;&quot;&gt;id: ObjectID&lt;/font&gt;&lt;/font&gt;" style="text;strokeColor=none;fillColor=none;spacingLeft=4;spacingRight=4;overflow=hidden;rotatable=0;points=[[0,0.5],[1,0.5]];portConstraint=eastwest;fontSize=12;whiteSpace=wrap;html=1;" parent="0ozjAAEZ4C_CavGXRtkN-1" vertex="1">
          <mxGeometry y="26" width="180" height="30" as="geometry" />
        </mxCell>
        <mxCell id="0ozjAAEZ4C_CavGXRtkN-3" value="&lt;font style=&quot;vertical-align: inherit;&quot;&gt;&lt;font style=&quot;vertical-align: inherit;&quot;&gt;еmail: String&lt;/font&gt;&lt;/font&gt;" style="text;strokeColor=none;fillColor=none;spacingLeft=4;spacingRight=4;overflow=hidden;rotatable=0;points=[[0,0.5],[1,0.5]];portConstraint=eastwest;fontSize=12;whiteSpace=wrap;html=1;" parent="0ozjAAEZ4C_CavGXRtkN-1" vertex="1">
          <mxGeometry y="56" width="180" height="30" as="geometry" />
        </mxCell>
        <mxCell id="0ozjAAEZ4C_CavGXRtkN-4" value="&lt;font style=&quot;vertical-align: inherit;&quot;&gt;&lt;font style=&quot;vertical-align: inherit;&quot;&gt;password: String&lt;/font&gt;&lt;/font&gt;" style="text;strokeColor=none;fillColor=none;spacingLeft=4;spacingRight=4;overflow=hidden;rotatable=0;points=[[0,0.5],[1,0.5]];portConstraint=eastwest;fontSize=12;whiteSpace=wrap;html=1;" parent="0ozjAAEZ4C_CavGXRtkN-1" vertex="1">
          <mxGeometry y="86" width="180" height="30" as="geometry" />
        </mxCell>
        <mxCell id="0ozjAAEZ4C_CavGXRtkN-5" value="&lt;font style=&quot;vertical-align: inherit;&quot;&gt;&lt;font style=&quot;vertical-align: inherit;&quot;&gt;&lt;font style=&quot;vertical-align: inherit;&quot;&gt;&lt;font style=&quot;vertical-align: inherit;&quot;&gt;&lt;font style=&quot;vertical-align: inherit;&quot;&gt;&lt;font style=&quot;vertical-align: inherit;&quot;&gt;&lt;font style=&quot;vertical-align: inherit;&quot;&gt;&lt;font style=&quot;vertical-align: inherit;&quot;&gt;diskSpace: number default 1024**3*10&lt;/font&gt;&lt;/font&gt;&lt;/font&gt;&lt;/font&gt;&lt;/font&gt;&lt;/font&gt;&lt;/font&gt;&lt;/font&gt;" style="text;strokeColor=none;fillColor=none;spacingLeft=4;spacingRight=4;overflow=hidden;rotatable=0;points=[[0,0.5],[1,0.5]];portConstraint=eastwest;fontSize=12;whiteSpace=wrap;html=1;" parent="0ozjAAEZ4C_CavGXRtkN-1" vertex="1">
          <mxGeometry y="116" width="180" height="44" as="geometry" />
        </mxCell>
        <mxCell id="0ozjAAEZ4C_CavGXRtkN-7" value="&lt;font style=&quot;vertical-align: inherit;&quot;&gt;&lt;font style=&quot;vertical-align: inherit;&quot;&gt;&lt;font style=&quot;vertical-align: inherit;&quot;&gt;&lt;font style=&quot;vertical-align: inherit;&quot;&gt;&lt;font style=&quot;vertical-align: inherit;&quot;&gt;&lt;font style=&quot;vertical-align: inherit;&quot;&gt;&lt;font style=&quot;vertical-align: inherit;&quot;&gt;&lt;font style=&quot;vertical-align: inherit;&quot;&gt;&lt;font style=&quot;vertical-align: inherit;&quot;&gt;&lt;font style=&quot;vertical-align: inherit;&quot;&gt;usedSpace: number default 0&lt;/font&gt;&lt;/font&gt;&lt;/font&gt;&lt;/font&gt;&lt;/font&gt;&lt;/font&gt;&lt;/font&gt;&lt;/font&gt;&lt;/font&gt;&lt;/font&gt;" style="text;strokeColor=none;fillColor=none;spacingLeft=4;spacingRight=4;overflow=hidden;rotatable=0;points=[[0,0.5],[1,0.5]];portConstraint=eastwest;fontSize=12;whiteSpace=wrap;html=1;" parent="0ozjAAEZ4C_CavGXRtkN-1" vertex="1">
          <mxGeometry y="160" width="180" height="44" as="geometry" />
        </mxCell>
        <mxCell id="0ozjAAEZ4C_CavGXRtkN-8" value="&lt;font style=&quot;vertical-align: inherit;&quot;&gt;&lt;font style=&quot;vertical-align: inherit;&quot;&gt;&lt;font style=&quot;vertical-align: inherit;&quot;&gt;&lt;font style=&quot;vertical-align: inherit;&quot;&gt;&lt;font style=&quot;vertical-align: inherit;&quot;&gt;&lt;font style=&quot;vertical-align: inherit;&quot;&gt;&lt;font style=&quot;vertical-align: inherit;&quot;&gt;&lt;font style=&quot;vertical-align: inherit;&quot;&gt;&lt;font style=&quot;vertical-align: inherit;&quot;&gt;&lt;font style=&quot;vertical-align: inherit;&quot;&gt;&lt;font style=&quot;vertical-align: inherit;&quot;&gt;&lt;font style=&quot;vertical-align: inherit;&quot;&gt;avatar: String&lt;/font&gt;&lt;/font&gt;&lt;/font&gt;&lt;/font&gt;&lt;/font&gt;&lt;/font&gt;&lt;/font&gt;&lt;/font&gt;&lt;/font&gt;&lt;/font&gt;&lt;/font&gt;&lt;/font&gt;" style="text;strokeColor=none;fillColor=none;spacingLeft=4;spacingRight=4;overflow=hidden;rotatable=0;points=[[0,0.5],[1,0.5]];portConstraint=eastwest;fontSize=12;whiteSpace=wrap;html=1;" parent="0ozjAAEZ4C_CavGXRtkN-1" vertex="1">
          <mxGeometry y="204" width="180" height="44" as="geometry" />
        </mxCell>
        <mxCell id="0ozjAAEZ4C_CavGXRtkN-9" value="File" style="swimlane;fontStyle=0;childLayout=stackLayout;horizontal=1;startSize=26;horizontalStack=0;resizeParent=1;resizeParentMax=0;resizeLast=0;collapsible=1;marginBottom=0;align=center;fontSize=14;" parent="1" vertex="1">
          <mxGeometry x="440" y="164" width="160" height="266" as="geometry" />
        </mxCell>
        <mxCell id="0ozjAAEZ4C_CavGXRtkN-10" value="&lt;font style=&quot;vertical-align: inherit;&quot;&gt;&lt;font style=&quot;vertical-align: inherit;&quot;&gt;id: ObjectID&lt;/font&gt;&lt;/font&gt;" style="text;strokeColor=none;fillColor=none;spacingLeft=4;spacingRight=4;overflow=hidden;rotatable=0;points=[[0,0.5],[1,0.5]];portConstraint=eastwest;fontSize=12;whiteSpace=wrap;html=1;" parent="0ozjAAEZ4C_CavGXRtkN-9" vertex="1">
          <mxGeometry y="26" width="160" height="30" as="geometry" />
        </mxCell>
        <mxCell id="0ozjAAEZ4C_CavGXRtkN-11" value="&lt;font style=&quot;vertical-align: inherit;&quot;&gt;&lt;font style=&quot;vertical-align: inherit;&quot;&gt;name: String&lt;/font&gt;&lt;/font&gt;" style="text;strokeColor=none;fillColor=none;spacingLeft=4;spacingRight=4;overflow=hidden;rotatable=0;points=[[0,0.5],[1,0.5]];portConstraint=eastwest;fontSize=12;whiteSpace=wrap;html=1;" parent="0ozjAAEZ4C_CavGXRtkN-9" vertex="1">
          <mxGeometry y="56" width="160" height="30" as="geometry" />
        </mxCell>
        <mxCell id="0ozjAAEZ4C_CavGXRtkN-12" value="&lt;font style=&quot;vertical-align: inherit;&quot;&gt;&lt;font style=&quot;vertical-align: inherit;&quot;&gt;type: String&lt;/font&gt;&lt;/font&gt;" style="text;strokeColor=none;fillColor=none;spacingLeft=4;spacingRight=4;overflow=hidden;rotatable=0;points=[[0,0.5],[1,0.5]];portConstraint=eastwest;fontSize=12;whiteSpace=wrap;html=1;" parent="0ozjAAEZ4C_CavGXRtkN-9" vertex="1">
          <mxGeometry y="86" width="160" height="30" as="geometry" />
        </mxCell>
        <mxCell id="0ozjAAEZ4C_CavGXRtkN-15" value="&lt;font style=&quot;vertical-align: inherit;&quot;&gt;&lt;font style=&quot;vertical-align: inherit;&quot;&gt;аccess_link: String&lt;/font&gt;&lt;/font&gt;" style="text;strokeColor=none;fillColor=none;spacingLeft=4;spacingRight=4;overflow=hidden;rotatable=0;points=[[0,0.5],[1,0.5]];portConstraint=eastwest;fontSize=12;whiteSpace=wrap;html=1;" parent="0ozjAAEZ4C_CavGXRtkN-9" vertex="1">
          <mxGeometry y="116" width="160" height="30" as="geometry" />
        </mxCell>
        <mxCell id="0ozjAAEZ4C_CavGXRtkN-13" value="&lt;font style=&quot;vertical-align: inherit;&quot;&gt;&lt;font style=&quot;vertical-align: inherit;&quot;&gt;&lt;font style=&quot;vertical-align: inherit;&quot;&gt;&lt;font style=&quot;vertical-align: inherit;&quot;&gt;size: Number&lt;/font&gt;&lt;/font&gt;&lt;/font&gt;&lt;/font&gt;" style="text;strokeColor=none;fillColor=none;spacingLeft=4;spacingRight=4;overflow=hidden;rotatable=0;points=[[0,0.5],[1,0.5]];portConstraint=eastwest;fontSize=12;whiteSpace=wrap;html=1;" parent="0ozjAAEZ4C_CavGXRtkN-9" vertex="1">
          <mxGeometry y="146" width="160" height="30" as="geometry" />
        </mxCell>
        <mxCell id="ZpDLucb5h0SMMFgUtYIk-1" value="&lt;font style=&quot;vertical-align: inherit;&quot;&gt;&lt;font style=&quot;vertical-align: inherit;&quot;&gt;&lt;font style=&quot;vertical-align: inherit;&quot;&gt;&lt;font style=&quot;vertical-align: inherit;&quot;&gt;path: String&lt;/font&gt;&lt;/font&gt;&lt;/font&gt;&lt;/font&gt;" style="text;strokeColor=none;fillColor=none;spacingLeft=4;spacingRight=4;overflow=hidden;rotatable=0;points=[[0,0.5],[1,0.5]];portConstraint=eastwest;fontSize=12;whiteSpace=wrap;html=1;" vertex="1" parent="0ozjAAEZ4C_CavGXRtkN-9">
          <mxGeometry y="176" width="160" height="30" as="geometry" />
        </mxCell>
        <mxCell id="0ozjAAEZ4C_CavGXRtkN-14" value="&lt;font style=&quot;vertical-align: inherit;&quot;&gt;&lt;font style=&quot;vertical-align: inherit;&quot;&gt;&lt;font style=&quot;vertical-align: inherit;&quot;&gt;&lt;font style=&quot;vertical-align: inherit;&quot;&gt;user_id: ObjectID FK&lt;/font&gt;&lt;/font&gt;&lt;/font&gt;&lt;/font&gt;" style="text;strokeColor=none;fillColor=none;spacingLeft=4;spacingRight=4;overflow=hidden;rotatable=0;points=[[0,0.5],[1,0.5]];portConstraint=eastwest;fontSize=12;whiteSpace=wrap;html=1;" parent="0ozjAAEZ4C_CavGXRtkN-9" vertex="1">
          <mxGeometry y="206" width="160" height="30" as="geometry" />
        </mxCell>
        <mxCell id="0ozjAAEZ4C_CavGXRtkN-16" value="&lt;font style=&quot;vertical-align: inherit;&quot;&gt;&lt;font style=&quot;vertical-align: inherit;&quot;&gt;&lt;font style=&quot;vertical-align: inherit;&quot;&gt;&lt;font style=&quot;vertical-align: inherit;&quot;&gt;parent_Id: ObjectID FK&lt;/font&gt;&lt;/font&gt;&lt;/font&gt;&lt;/font&gt;" style="text;strokeColor=none;fillColor=none;spacingLeft=4;spacingRight=4;overflow=hidden;rotatable=0;points=[[0,0.5],[1,0.5]];portConstraint=eastwest;fontSize=12;whiteSpace=wrap;html=1;" parent="0ozjAAEZ4C_CavGXRtkN-9" vertex="1">
          <mxGeometry y="236" width="160" height="30" as="geometry" />
        </mxCell>
        <mxCell id="0ozjAAEZ4C_CavGXRtkN-17" value="" style="edgeStyle=entityRelationEdgeStyle;fontSize=12;html=1;endArrow=ERoneToMany;rounded=0;entryX=0;entryY=0.167;entryDx=0;entryDy=0;entryPerimeter=0;exitX=1.017;exitY=-0.068;exitDx=0;exitDy=0;exitPerimeter=0;" parent="1" source="0ozjAAEZ4C_CavGXRtkN-5" target="0ozjAAEZ4C_CavGXRtkN-15" edge="1">
          <mxGeometry width="100" height="100" relative="1" as="geometry">
            <mxPoint x="330" y="460" as="sourcePoint" />
            <mxPoint x="430" y="360" as="targetPoint" />
          </mxGeometry>
        </mxCell>
      </root>
    </mxGraphModel>
  </diagram>
</mxfile>
